<?xml version="1.0" encoding="UTF-8"?>
<svg xmlns="http://www.w3.org/2000/svg" xmlns:xlink="http://www.w3.org/1999/xlink" width="100px" height="100px" viewBox="0 0 100 100" version="1.1">
<defs>
<clipPath id="clip1">
  <path d="M 17 59 L 83 59 L 83 99.953125 L 17 99.953125 Z M 17 59 "/>
</clipPath>
</defs>
<g id="surface1">
<path style="fill:none;stroke-width:15;stroke-linecap:round;stroke-linejoin:round;stroke:rgb(0%,0%,0%);stroke-opacity:1;stroke-miterlimit:10;" d="M 0.00395594 0.009431 L 0.00395594 -32.766566 " transform="matrix(0.195217,0,0,-0.195217,18.940634,60.392466)"/>
<g clip-path="url(#clip1)" clip-rule="nonzero">
<path style="fill:none;stroke-width:15;stroke-linecap:round;stroke-linejoin:round;stroke:rgb(0%,0%,0%);stroke-opacity:1;stroke-miterlimit:10;" d="M 0.00395594 -0.00244301 L 0.00395594 -32.958528 C 0.00395594 -37.94096 2.725284 -42.543206 7.127433 -44.924368 L 152.498384 -123.682807 C 156.540356 -125.863872 161.422739 -125.863872 165.464712 -123.682807 L 310.835663 -44.924368 C 315.217802 -42.543206 317.95914 -37.94096 317.95914 -32.958528 L 317.95914 67.31041 " transform="matrix(0.195217,0,0,-0.195217,18.940634,74.019054)"/>
</g>
<path style="fill:none;stroke-width:15;stroke-linecap:round;stroke-linejoin:round;stroke:rgb(0%,0%,0%);stroke-opacity:1;stroke-miterlimit:10;" d="M 0.00494781 -0.000539927 L 0.00494781 -165.481306 " transform="matrix(0.195217,0,0,-0.195217,49.975597,65.218645)"/>
<path style="fill:none;stroke-width:15;stroke-linecap:round;stroke-linejoin:round;stroke:rgb(0%,0%,0%);stroke-opacity:1;stroke-miterlimit:10;" d="M 0.00494781 -0.00986335 L -158.972644 -86.131897 L 0.00494781 -172.27394 L 158.98254 -86.131897 Z M 0.00494781 -0.00986335 " transform="matrix(0.195217,0,0,-0.195217,49.975597,31.587918)"/>
<path style="fill:none;stroke-width:15;stroke-linecap:round;stroke-linejoin:round;stroke:rgb(0%,0%,0%);stroke-opacity:1;stroke-miterlimit:10;" d="M 0.00280262 -0.00579122 L -36.374952 -41.726154 L 122.60264 -127.868197 L 173.167319 -69.859885 C 176.028715 -66.578283 175.108266 -61.475793 171.286401 -59.394777 L 115.519182 -29.20004 " transform="matrix(0.195217,0,0,-0.195217,57.077578,23.440276)"/>
<path style="fill:none;stroke-width:15;stroke-linecap:round;stroke-linejoin:round;stroke:rgb(0%,0%,0%);stroke-opacity:1;stroke-miterlimit:10;" d="M 0.00337345 -0.00261651 L -48.400251 26.230187 " transform="matrix(0.195217,0,0,-0.195217,73.264966,25.690895)"/>
<path style="fill:none;stroke-width:15;stroke-linecap:round;stroke-linejoin:round;stroke:rgb(0%,0%,0%);stroke-opacity:1;stroke-miterlimit:10;" d="M -0.00606586 0.00218694 L -83.066605 -44.999777 C -86.90848 -47.080793 -87.828929 -52.183283 -84.967533 -55.464885 L -34.382844 -113.473197 L 124.594748 -27.331154 L 72.009082 32.978282 C 69.928067 35.379453 66.446367 35.999756 63.645 34.479014 L 33.590331 18.191064 " transform="matrix(0.195217,0,0,-0.195217,25.653528,26.250427)"/>
<path style="fill:none;stroke-width:15;stroke-linecap:round;stroke-linejoin:round;stroke:rgb(0%,0%,0%);stroke-opacity:1;stroke-miterlimit:10;" d="M 0.00494781 -0.000539927 L -64.126353 -21.711136 C -67.708101 -22.931732 -71.650025 -22.591566 -74.971646 -20.790687 L -215.019999 55.086346 C -220.242548 57.927733 -219.602235 65.611483 -213.979491 67.512411 L -158.972644 86.141503 Z M 0.00494781 -0.000539927 " transform="matrix(0.195217,0,0,-0.195217,49.975597,65.218645)"/>
<path style="fill:none;stroke-width:15;stroke-linecap:round;stroke-linejoin:round;stroke:rgb(0%,0%,0%);stroke-opacity:1;stroke-miterlimit:10;" d="M -0.00232302 -0.00168902 L -54.98916 18.627403 L -213.966752 -67.51464 L -149.835452 -89.225236 C -146.253704 -90.445832 -142.331789 -90.105666 -138.990159 -88.304787 L 1.058195 -12.427754 C 6.280744 -9.586367 5.620421 -1.902617 -0.00232302 -0.00168902 Z M -0.00232302 -0.00168902 " transform="matrix(0.195217,0,0,-0.195217,91.746547,52.038733)"/>
<path style="fill:none;stroke-width:15;stroke-linecap:round;stroke-linejoin:round;stroke:rgb(0%,0%,0%);stroke-opacity:1;stroke-miterlimit:10;" d="M 0.00767152 0.00507499 L 17.196061 9.329626 " transform="matrix(0.195217,0,0,-0.195217,58.264127,86.012709)"/>
<path style="fill:none;stroke-width:15;stroke-linecap:round;stroke-linejoin:round;stroke:rgb(0%,0%,0%);stroke-opacity:1;stroke-miterlimit:10;" d="M -0.00485057 -0.00200706 L -22.976062 -22.973219 " transform="matrix(0.195217,0,0,-0.195217,38.258759,6.808202)"/>
<path style="fill:none;stroke-width:15;stroke-linecap:round;stroke-linejoin:round;stroke:rgb(0%,0%,0%);stroke-opacity:1;stroke-miterlimit:10;" d="M -0.00485057 0.00818143 L -22.976062 22.979393 " transform="matrix(0.195217,0,0,-0.195217,38.258759,11.294566)"/>
<path style="fill:none;stroke-width:15;stroke-linecap:round;stroke-linejoin:round;stroke:rgb(0%,0%,0%);stroke-opacity:1;stroke-miterlimit:10;" d="M 0.00299264 0.00766378 C 0.00299264 14.934949 12.108901 27.040858 27.036187 27.040858 C 41.963472 27.040858 54.069381 14.934949 54.069381 0.00766378 C 54.069381 -14.939632 41.963472 -27.04554 27.036187 -27.04554 C 12.108901 -27.04554 0.00299264 -14.939632 0.00299264 0.00766378 " transform="matrix(0.195217,0,0,-0.195217,21.835353,21.021027)"/>
<path style="fill:none;stroke-width:15;stroke-linecap:round;stroke-linejoin:round;stroke:rgb(0%,0%,0%);stroke-opacity:1;stroke-miterlimit:10;" d="M 0.00352412 0.00441711 L -22.987697 -22.986804 " transform="matrix(0.195217,0,0,-0.195217,81.604781,16.3993)"/>
<path style="fill:none;stroke-width:15;stroke-linecap:round;stroke-linejoin:round;stroke:rgb(0%,0%,0%);stroke-opacity:1;stroke-miterlimit:10;" d="M 0.00352412 -0.00540417 L -22.987697 22.985817 " transform="matrix(0.195217,0,0,-0.195217,81.604781,20.885664)"/>
<path style="fill:none;stroke-width:15;stroke-linecap:round;stroke-linejoin:round;stroke:rgb(0%,0%,0%);stroke-opacity:1;stroke-miterlimit:10;" d="M 0.00682691 0.00708151 C 0.00682691 -11.85871 -9.617871 -21.483407 -21.483662 -21.483407 C -33.329443 -21.483407 -42.954141 -11.85871 -42.954141 0.00708151 C -42.954141 11.852863 -33.329443 21.477561 -21.483662 21.477561 C -9.617871 21.477561 0.00682691 11.852863 0.00682691 0.00708151 Z M 0.00682691 0.00708151 " transform="matrix(0.195217,0,0,-0.195217,63.686167,19.813882)"/>
<path style="fill:none;stroke-width:15;stroke-linecap:round;stroke-linejoin:round;stroke:rgb(0%,0%,0%);stroke-opacity:1;stroke-miterlimit:10;" d="M -0.00260551 -0.000132783 C -0.00260551 -13.90692 -11.268104 -25.172419 -25.174891 -25.172419 C -39.081679 -25.172419 -50.347177 -13.90692 -50.347177 -0.000132783 C -50.347177 13.906655 -39.081679 25.172153 -25.174891 25.172153 C -11.268104 25.172153 -0.00260551 13.906655 -0.00260551 -0.000132783 Z M -0.00260551 -0.000132783 " transform="matrix(0.195217,0,0,-0.195217,72.914571,6.37888)"/>
<path style="fill:none;stroke-width:15;stroke-linecap:round;stroke-linejoin:round;stroke:rgb(0%,0%,0%);stroke-opacity:1;stroke-miterlimit:10;" d="M -0.00704679 -0.00177111 C -28.981188 -8.045697 -50.25157 -34.618667 -50.25157 -66.154058 C -50.25157 -75.838785 -48.250593 -85.063287 -44.608815 -93.427369 L 18.421948 -127.58404 L 81.452711 -93.427369 C 85.074479 -85.063287 87.095465 -75.838785 87.095465 -66.154058 C 87.095465 -34.678696 65.905123 -8.165756 37.03103 -0.0618004 " transform="matrix(0.195217,0,0,-0.195217,46.380282,40.312154)"/>
<path style="fill:none;stroke-width:15;stroke-linecap:round;stroke-linejoin:round;stroke:rgb(0%,0%,0%);stroke-opacity:1;stroke-miterlimit:10;" d="M 0.0032083 0.00637086 C -3.638569 3.107885 -8.741059 5.048832 -14.423833 5.068842 C -20.086597 5.088851 -25.209097 3.167914 -28.870884 0.0864099 " transform="matrix(0.195217,0,0,-0.195217,52.639999,57.216087)"/>
<path style="fill:none;stroke-width:15;stroke-linecap:round;stroke-linejoin:round;stroke:rgb(0%,0%,0%);stroke-opacity:1;stroke-miterlimit:10;" d="M -0.00703341 -0.00601791 L 0.0730057 -0.00601791 " transform="matrix(0.195217,0,0,-0.195217,56.345123,51.88945)"/>
<path style="fill:none;stroke-width:15;stroke-linecap:round;stroke-linejoin:round;stroke:rgb(0%,0%,0%);stroke-opacity:1;stroke-miterlimit:10;" d="M 0.00818996 -0.00601791 L 0.0682193 -0.00601791 " transform="matrix(0.195217,0,0,-0.195217,43.592151,51.88945)"/>
<path style="fill:none;stroke-width:15;stroke-linecap:round;stroke-linejoin:round;stroke:rgb(0%,0%,0%);stroke-opacity:1;stroke-miterlimit:10;" d="M 0.000766591 -0.00601791 L 0.0607959 -0.00601791 " transform="matrix(0.195217,0,0,-0.195217,56.3436,51.88945)"/>
</g>
</svg>
